REM DIRINDEX 1\2,1\4,1\5,1\6,1\7,1\3\8,1\3\9,1\3\10
REM DIRNAME folder01,folder02,folder03,folder04,folder05,folder06,folder07,folder08,folder09,folder10
TITLE ""
FILE "DB4500_5th_4B_24.mp3" MP3
  TRACK 01 AUDIO
    TITLE "8:cjc113_2665"
    INDEX 01 00:00:00
  TRACK 02 AUDIO
    TITLE "0:"
    INDEX 01 00:00:74
  TRACK 03 AUDIO
    TITLE "9:cjc113_2666"
    INDEX 01 00:01:22
  TRACK 04 AUDIO
    TITLE "0:"
    INDEX 01 00:02:38
  TRACK 05 AUDIO
    TITLE "10:cjc113_2667"
    INDEX 01 00:02:57
  TRACK 06 AUDIO
    TITLE "0:"
    INDEX 01 00:05:12
  TRACK 07 AUDIO
    TITLE "8:cjc113_2668"
    INDEX 01 00:05:59
  TRACK 08 AUDIO
    TITLE "0:"
    INDEX 01 00:06:73
  TRACK 09 AUDIO
    TITLE "9:cjc113_2669"
    INDEX 01 00:07:19
  TRACK 10 AUDIO
    TITLE "0:"
    INDEX 01 00:08:28
  TRACK 11 AUDIO
    TITLE "10:cjc113_2670"
    INDEX 01 00:08:48
  TRACK 12 AUDIO
    TITLE "0:"
    INDEX 01 00:12:11
  TRACK 13 AUDIO
    TITLE "8:cjc113_2671"
    INDEX 01 00:12:56
  TRACK 14 AUDIO
    TITLE "0:"
    INDEX 01 00:14:02
  TRACK 15 AUDIO
    TITLE "9:cjc113_2672"
    INDEX 01 00:14:25
  TRACK 16 AUDIO
    TITLE "0:"
    INDEX 01 00:15:44
  TRACK 17 AUDIO
    TITLE "10:cjc113_2673"
    INDEX 01 00:15:64
  TRACK 18 AUDIO
    TITLE "0:"
    INDEX 01 00:18:42
  TRACK 19 AUDIO
    TITLE "8:cjc113_2674"
    INDEX 01 00:19:15
  TRACK 20 AUDIO
    TITLE "0:"
    INDEX 01 00:20:24
  TRACK 21 AUDIO
    TITLE "9:cjc113_2675"
    INDEX 01 00:20:47
  TRACK 22 AUDIO
    TITLE "0:"
    INDEX 01 00:22:30
  TRACK 23 AUDIO
    TITLE "10:cjc113_2676"
    INDEX 01 00:22:54
  TRACK 24 AUDIO
    TITLE "0:"
    INDEX 01 00:25:19
  TRACK 25 AUDIO
    TITLE "8:cjc113_2677"
    INDEX 01 00:25:66
  TRACK 26 AUDIO
    TITLE "0:"
    INDEX 01 00:27:06
  TRACK 27 AUDIO
    TITLE "9:cjc113_2678"
    INDEX 01 00:27:30
  TRACK 28 AUDIO
    TITLE "0:"
    INDEX 01 00:29:09
  TRACK 29 AUDIO
    TITLE "10:cjc113_2679"
    INDEX 01 00:29:33
  TRACK 30 AUDIO
    TITLE "0:"
    INDEX 01 00:32:15
  TRACK 31 AUDIO
    TITLE "8:cjc113_2680"
    INDEX 01 00:32:62
  TRACK 32 AUDIO
    TITLE "0:"
    INDEX 01 00:33:71
  TRACK 33 AUDIO
    TITLE "9:cjc113_2681"
    INDEX 01 00:34:16
  TRACK 34 AUDIO
    TITLE "0:"
    INDEX 01 00:35:29
  TRACK 35 AUDIO
    TITLE "10:cjc113_2682"
    INDEX 01 00:35:51
  TRACK 36 AUDIO
    TITLE "0:"
    INDEX 01 00:39:02
  TRACK 37 AUDIO
    TITLE "8:cjc113_2683"
    INDEX 01 00:39:52
  TRACK 38 AUDIO
    TITLE "0:"
    INDEX 01 00:40:54
  TRACK 39 AUDIO
    TITLE "9:cjc113_2684"
    INDEX 01 00:40:72
  TRACK 40 AUDIO
    TITLE "0:"
    INDEX 01 00:42:19
  TRACK 41 AUDIO
    TITLE "10:cjc113_2685"
    INDEX 01 00:42:39
  TRACK 42 AUDIO
    TITLE "0:"
    INDEX 01 00:45:47
  TRACK 43 AUDIO
    TITLE "8:cjc113_2686"
    INDEX 01 00:46:11
  TRACK 44 AUDIO
    TITLE "0:"
    INDEX 01 00:47:13
  TRACK 45 AUDIO
    TITLE "9:cjc113_2687"
    INDEX 01 00:47:30
  TRACK 46 AUDIO
    TITLE "0:"
    INDEX 01 00:48:59
  TRACK 47 AUDIO
    TITLE "10:cjc113_2688"
    INDEX 01 00:49:00
  TRACK 48 AUDIO
    TITLE "0:"
    INDEX 01 00:52:43
  TRACK 49 AUDIO
    TITLE "8:cjc113_2689"
    INDEX 01 00:53:13
  TRACK 50 AUDIO
    TITLE "0:"
    INDEX 01 00:54:21
  TRACK 51 AUDIO
    TITLE "9:cjc113_2690"
    INDEX 01 00:54:40
  TRACK 52 AUDIO
    TITLE "0:"
    INDEX 01 00:55:67
  TRACK 53 AUDIO
    TITLE "10:cjc113_2691"
    INDEX 01 00:56:12
  TRACK 54 AUDIO
    TITLE "0:"
    INDEX 01 00:58:69
  TRACK 55 AUDIO
    TITLE "8:cjc113_2692"
    INDEX 01 00:59:41
  TRACK 56 AUDIO
    TITLE "0:"
    INDEX 01 01:00:41
  TRACK 57 AUDIO
    TITLE "9:cjc113_2693"
    INDEX 01 01:00:57
  TRACK 58 AUDIO
    TITLE "0:"
    INDEX 01 01:02:26
  TRACK 59 AUDIO
    TITLE "10:cjc113_2694"
    INDEX 01 01:02:42
  TRACK 60 AUDIO
    TITLE "0:"
    INDEX 01 01:04:45
  TRACK 61 AUDIO
    TITLE "8:cjc113_2695"
    INDEX 01 01:05:15
  TRACK 62 AUDIO
    TITLE "0:"
    INDEX 01 01:06:38
  TRACK 63 AUDIO
    TITLE "9:cjc113_2696"
    INDEX 01 01:06:53
  TRACK 64 AUDIO
    TITLE "0:"
    INDEX 01 01:08:27
  TRACK 65 AUDIO
    TITLE "10:cjc113_2697"
    INDEX 01 01:08:46
  TRACK 66 AUDIO
    TITLE "0:"
    INDEX 01 01:12:62
  TRACK 67 AUDIO
    TITLE "8:cjc113_2698"
    INDEX 01 01:13:28
  TRACK 68 AUDIO
    TITLE "0:"
    INDEX 01 01:14:37
  TRACK 69 AUDIO
    TITLE "9:cjc113_2699"
    INDEX 01 01:14:53
  TRACK 70 AUDIO
    TITLE "0:"
    INDEX 01 01:16:07
  TRACK 71 AUDIO
    TITLE "10:cjc113_2700"
    INDEX 01 01:16:22
  TRACK 72 AUDIO
    TITLE "0:"
    INDEX 01 01:19:58
